<svg width="40" height="40" viewBox="0 0 40 40" fill="none" xmlns="http://www.w3.org/2000/svg">
	<defs>
		<linearGradient id="g" x1="6" y1="6" x2="34" y2="34" gradientUnits="userSpaceOnUse">
			<stop stop-color="#F97316" />
			<stop offset="1" stop-color="#EF4444" />
		</linearGradient>
	</defs>
	<!-- Rounded square background -->
	<rect x="4" y="4" width="32" height="32" rx="10" fill="url(#g)" />

	<!-- Chef hat (white outline) -->
	<g stroke="white" stroke-width="2.2" stroke-linecap="round" stroke-linejoin="round" fill="none">
		<!-- cloud-like top -->
		<path d="M12.5 18.2c-1.9 0-3.4-1.5-3.4-3.4 0-1.8 1.4-3.3 3.1-3.4.5-2 2.4-3.5 4.6-3.5 1.5 0 2.8.7 3.7 1.8.8-1.1 2.2-1.8 3.7-1.8 2.5 0 4.6 2 4.7 4.5 1.6.2 2.9 1.6 2.9 3.3 0 1.9-1.5 3.4-3.4 3.4H12.5z"/>
		<!-- base band -->
		<rect x="13" y="18.2" width="14" height="3.6" rx="1.4" />
		<!-- small base -->
		<path d="M16 21.8v3.2a2 2 0 0 0 2 2h4a2 2 0 0 0 2-2v-3.2" />
	</g>
</svg>

